<?xml version="1.0" encoding="UTF-8"?>
<svg version="1.1" xmlns="http://www.w3.org/2000/svg" width="512" height="512">
<path d="M0 0 C3.34625024 2.52676039 4.67977847 4.03933542 6 8 C6.10635338 11.03811257 6.1548646 14.05387352 6.15821838 17.092453 C6.16562535 18.50512348 6.16562535 18.50512348 6.17318195 19.94633275 C6.1885921 23.11550582 6.1969271 26.28465857 6.20532227 29.45385742 C6.21489802 31.7202828 6.22490792 33.98670637 6.23532104 36.25312805 C6.26240892 42.41803158 6.28339745 48.58294279 6.30332303 54.74787307 C6.32515866 61.1861218 6.35255918 67.62434674 6.37937927 74.06257629 C6.42365763 84.87268075 6.46448734 95.68279245 6.50268555 106.49291992 C6.54204149 117.62802076 6.58346795 128.76311072 6.62768555 139.89819336 C6.63040982 140.58441417 6.63313409 141.27063498 6.63594092 141.97765037 C6.64962041 145.42017499 6.66334068 148.86269944 6.67708123 152.30522382 C6.79104286 180.87012641 6.89777961 209.43505312 7 238 C7.66684279 237.32578286 8.33368559 236.65156572 9.02073574 235.95691776 C25.24850107 219.55154445 41.49931063 203.16927807 57.77452755 186.81097507 C65.644587 178.89966763 73.50699347 170.98102651 81.35180664 163.04467773 C88.18949342 156.12724505 95.04113429 149.2239977 101.90988642 142.33740562 C105.54629912 138.69056483 109.1753441 135.03701789 112.7877636 131.36639595 C116.18910617 127.91069998 119.60881506 124.47430358 123.04344177 121.05169678 C124.29967538 119.79326466 125.54908291 118.52797486 126.79097176 117.25538445 C137.35248652 106.44575822 137.35248652 106.44575822 143.13575745 105.667099 C148.13207881 106.09752757 150.23501185 107.35673518 153.8125 110.6875 C155.53935066 114.05031444 155.82281538 117.35887999 155 121 C151.71150438 126.66792374 147.28414744 130.98508236 142.65136719 135.57568359 C141.81197601 136.41536682 140.97258484 137.25505005 140.10775757 138.12017822 C137.81827062 140.40851506 135.52442425 142.69236834 133.2285223 144.97426558 C130.82528585 147.36495348 128.42775603 149.76135075 126.02960205 152.15713501 C121.49341176 156.68712261 116.95214991 161.21199011 112.40902066 165.73501742 C107.23456733 170.88707395 102.06582864 176.04484751 96.89755011 181.20309711 C86.27135717 191.8084155 75.63804803 202.40657233 65 213 C70.06362606 219.12255168 75.58215144 224.71093662 81.2121582 230.30981445 C82.23626173 231.33199555 83.26013541 232.35440697 84.28379822 233.37702942 C86.47582797 235.56591513 88.66939706 237.75324189 90.86419106 239.93935585 C94.33322289 243.39480548 97.79838352 246.85411994 101.26298523 250.31401062 C108.60985711 257.64981546 115.96097048 264.98136324 123.3125 272.3125 C131.26727895 280.24525044 139.22131622 288.17873641 147.17050618 296.11708802 C150.61685003 299.55844328 154.06561864 302.99734451 157.5162493 306.43440115 C159.65602512 308.56673823 161.79374559 310.70112658 163.93090248 312.83608818 C164.92455331 313.8278613 165.91907098 314.8187668 166.91450119 315.80875397 C168.26924851 317.15632354 169.62065995 318.50724433 170.97187805 319.85835266 C171.73009511 320.61434911 172.48831217 321.37034555 173.2695055 322.14925098 C176.55743318 325.66566142 176.40594427 328.8658244 176.33203125 333.515625 C176 336 176 336 174.0625 339.0625 C170.17555564 341.52158725 166.60998336 342.67370857 162 342 C157.92419678 339.51585363 154.54317084 336.79152322 151.17837524 333.41888428 C149.80291031 332.04754333 149.80291031 332.04754333 148.3996582 330.64849854 C147.40127349 329.64303737 146.40298568 328.63747997 145.40478516 327.63183594 C144.34030415 326.56679023 143.27538144 325.50218582 142.21005249 324.43798828 C139.32997182 321.55847982 136.45608564 318.67286072 133.58329439 315.78608227 C130.57599757 312.76625603 127.5630101 309.75211837 124.55062866 306.73736572 C118.85191934 301.03244813 113.15832613 295.32245292 107.46656549 289.61060357 C100.98441597 283.10607474 94.49656498 276.60724551 88.00823522 270.10888243 C74.66581498 256.74557498 61.33055068 243.3751474 48 230 C18.74864217 252.99844172 18.74864217 252.99844172 3.01950073 284.44992065 C2.75332304 290.58791438 3.17495847 296.58487845 3.9543457 302.66992188 C4.35423356 306.13031268 4.52264543 309.60254261 4.70507812 313.08007812 C4.91055735 316.986412 5.14708633 320.87448327 5.55400085 324.76652527 C6.48802831 334.12630309 6.48802831 334.12630309 4.17529297 337.72167969 C1.45911971 340.56649774 -0.24235128 341.87737335 -4.18359375 342.15234375 C-4.92738281 342.08144531 -5.67117187 342.01054687 -6.4375 341.9375 C-7.17871094 341.88464844 -7.91992188 341.83179688 -8.68359375 341.77734375 C-12.11494989 340.62584312 -14.22378826 339.12126539 -16 336 C-16.76842683 331.64421256 -16.66944442 327.31727645 -16.62818909 322.90429688 C-16.63323455 321.54235143 -16.64046339 320.18041263 -16.64968723 318.81848907 C-16.66863711 315.07669662 -16.65636093 311.33555664 -16.6389643 307.59378052 C-16.62560767 303.55825328 -16.64102122 299.5228226 -16.65278625 295.48730469 C-16.67118002 287.58204653 -16.66263902 279.67703529 -16.64469803 271.77178478 C-16.63068103 265.34792015 -16.62677729 258.9241226 -16.6301403 252.50024414 C-16.63061775 251.586496 -16.63109519 250.67274785 -16.6315871 249.73131037 C-16.63261341 247.87513668 -16.63366877 246.018963 -16.63475286 244.16278934 C-16.64332344 227.74389344 -16.62663335 211.32511687 -16.59692383 194.90625 C-16.56808556 178.96869901 -16.56100242 163.03131993 -16.57641602 147.09375 C-16.59317126 129.74512882 -16.5972193 112.3965893 -16.57970566 95.047966 C-16.57786124 93.19856263 -16.57602651 91.34915925 -16.57420158 89.49975586 C-16.57328949 88.58977797 -16.5723774 87.67980008 -16.57143768 86.7422471 C-16.56582807 80.32497692 -16.56914341 73.90774655 -16.57574654 67.49047852 C-16.58347239 59.67155445 -16.57675422 51.8527997 -16.5515715 44.0339098 C-16.53905897 40.04339597 -16.53295099 36.05314599 -16.54411316 32.06262207 C-16.55413499 28.41086173 -16.54574058 24.75962818 -16.52253198 21.10793209 C-16.51490874 19.15836927 -16.52694599 17.20876036 -16.53963572 15.25922394 C-16.52858803 14.10283165 -16.51754034 12.94643936 -16.50615788 11.75500488 C-16.50496639 10.75715218 -16.50377491 9.75929947 -16.50254732 8.7312088 C-15.86003307 5.23931756 -14.42103277 3.54761123 -12 1 C-8.28289437 -0.85855282 -4.04722719 -0.57908439 0 0 Z " fill="#FFFFFF" transform="translate(144,64)"/>
</svg>
